<svg xmlns="http://www.w3.org/2000/svg" viewBox="0 0 78.36 84.69">
  <title>black-king</title>
  <path  style="fill:#010101" d="M42.47,52.41q0,2.32-3.23,2.32-3.61,0-3.61-2.32,0-10.72-7.1-17.43-6.33-5.68-12.26-5.68-8.78,0-11,7L4.78,39.76V40q0,5.16,7.62,14.33A49.31,49.31,0,0,0,15.88,58q2.07,1.68,6.84,1.68A108.6,108.6,0,0,0,39,57.71a111.06,111.06,0,0,0,16.4,1.94q4.91,0,6.84-1.68a40.53,40.53,0,0,0,9-11.62A14.41,14.41,0,0,0,73.33,40q0-8.13-7.36-10.2a16,16,0,0,0-4.13-.52q-5.94,0-12.14,5.81-7.23,6.45-7.23,17.3M70.49,40q0,5.16-7.1,12.14L60,55l-1.29.77a33.1,33.1,0,0,1-5.16.39q-8,0-8-3.23Q45.83,43,51.51,37.44q4.91-4.91,10.07-4.91,6.58,0,8.39,4.78L70.49,40M58.22,72.81q0-3.36-19-3.36-5.16,0-9.17.39L27,70.1q-7,.9-7,2.58,0,1.94,3.49,1.94l15.62-1.29,15.49,1.29q3.61,0,3.61-1.81m7.23,3.1q-0.26,8.78-26.34,8.78-25.82,0-26.21-8.78a45.42,45.42,0,0,0-2.45-14.72A44.58,44.58,0,0,0,5,52.29Q0,45.44,0,40.15A14.32,14.32,0,0,1,7.1,27.37,16.09,16.09,0,0,1,16,24.79a20,20,0,0,1,12.78,4.91q0-5.94,1.16-8.13,0.9-2.45,5.94-5.94v-3L30.6,9.42V4.78h4.78L36.92,0h4.39L43,4.78h4.65V9.42l-5.16,3.23v3q4.91,3.61,6.07,6.2l0.9,3.74q0.13,1.55.26,4.13,6.07-4.91,12.52-4.91,8.65,0,13.43,6.58a14.94,14.94,0,0,1,2.71,8.78q0,5.29-5,12.26l-3,4.13q-4.78,7.23-4.91,19.36M7.75,40q0-5.42,5.42-7a10.14,10.14,0,0,1,3.23-.52q5.42,0,10.33,4.91,5.55,5.68,5.81,15.49,0.13,2.84-5.94,3.23H24.66a37.41,37.41,0,0,1-5.29-.39q-4.26-2.07-8.52-8.13Q7.75,43.12,7.75,40" />
</svg>