<svg xmlns="http://www.w3.org/2000/svg" viewBox="0 0 83.66 89.85">
  <title>black-bishop</title>
  <path style="fill:#010101" d="M35.5,56.16q-6.58,0-6.58,2.07,0,1.81,5.81,2.19h7.1q12.91,0,12.91-2.19t-6.58-2.07H35.5m0-8q-5.68,0-6.33,1.29a1.05,1.05,0,0,0-.26.77q0,1.42,2.71,1.68a97.47,97.47,0,0,0,10.2.39,101.5,101.5,0,0,0,10.33-.39q2.58-.26,2.58-1.68,0-2.07-6.58-2.07H35.5m24,5.55,2.58,9.94q0,4.52-9.17,5.29a35,35,0,0,0,12.52,2.58q0.77,0,7.62-.39,5.68,0,9.3,5.94,0.52,1,1.29,2.32L79,86.5a9.73,9.73,0,0,1-4.39,3.36q-0.52-2.71-8.26-3.36l-3.1-.26Q47.38,84.95,41.83,79.4q-5,5.29-15.36,6.07-2.32.26-6.07,0.77Q11,87,9.42,88.95a2.87,2.87,0,0,0-.39.9Q5.68,88.43,2.71,83.4A29.77,29.77,0,0,0,0,79.4q3.49-6.45,7.49-7.75a9,9,0,0,1,3.1-.52l7.62,0.39a34.31,34.31,0,0,0,12.52-2.58q-9.17-.77-9.17-5.29,0-.39,2.07-6.58a11.69,11.69,0,0,0,.65-2.84Q16.4,44.67,16.4,37.31q0-8.52,8.39-15.49,7.49-6.33,10.84-6.71a11.33,11.33,0,0,1-2.84-7.23q0-6.07,6.07-7.49a11.24,11.24,0,0,1,3-.39q6.45,0,8.39,4.78l0.65,2.71V7.88A11.7,11.7,0,0,1,48,15.1q2.45,0.65,7.36,4,11.88,8.26,11.88,18.2,0,7.49-7.75,16.4m-15.36-12V35.76h4.52V30.85H44.15V25.3H39.5v5.55H35v4.91H39.5V41.7h4.65M41.83,5.29A3,3,0,0,0,38.6,7.62l-0.13.77a3,3,0,0,0,2.58,3.1,2.44,2.44,0,0,0,.77.13q3.23,0,3.23-3.23t-3.23-3.1" />
</svg>