<svg xmlns="http://www.w3.org/2000/svg" viewBox="0 0 89.6 83.4">
  <title>black-queen</title>
  <path style="fill:#010101" d="M23.5,69.84q0,2.07,3,2.07l8.91-.65,7.75-.39h1.94l15.1,0.77,3.1,0.26q3,0,3-2.07,0-3.74-17.3-4.13h-4q-14.59,0-19.49,2.19-1.94.77-1.94,1.94m-16.14-54a2.94,2.94,0,0,0-3.1,2.45,2.44,2.44,0,0,0-.13.77,2.94,2.94,0,0,0,2.45,3.1,2.44,2.44,0,0,0,.77.13q3.1,0,3.1-3.23t-3.1-3.23M24.27,7.75q-3.36,0-3.36,3.23t3.36,3.23q3.1,0,3.1-3.23t-3.1-3.23m41.18,0a2.94,2.94,0,0,0-3,2.19l-0.13,1q0,3.23,3.1,3.23T68.68,11q0-3.23-3.23-3.23m16.78,8.13q-3.1,0-3.1,3.23t3.1,3.23q3.23,0,3.23-3.23A2.94,2.94,0,0,0,83,16a2.44,2.44,0,0,0-.77-0.13m-9.3,61.71q0,3.61-13.3,5l-12.52.77H44.8q-15.75,0-24-2.71-4-1.16-4-3.1a21.85,21.85,0,0,1,2.07-8.52,11,11,0,0,0,1.42-4q0-2.45-5.94-9.55-3.23-3.74-3.74-5.16a17.44,17.44,0,0,0-.77-3.49L8.13,40.41A72.9,72.9,0,0,1,5.94,27Q0,24.53,0,19.11a6.72,6.72,0,0,1,4.26-6.58,7.4,7.4,0,0,1,3.1-.65,6.74,6.74,0,0,1,6.33,3.87,7,7,0,0,1,.9,3.36L13.94,24q0,5.81,8.26,14.2a91.75,91.75,0,0,0,.65-11.1q0-8.65-3.1-11a2,2,0,0,0-.52-0.39q-2.32-1.42-2.32-5A6.57,6.57,0,0,1,21.3,4.13a7.1,7.1,0,0,1,3-.65,6.64,6.64,0,0,1,6.46,4.13,6.37,6.37,0,0,1,.77,3.1l-0.9,5.55q0,7.23,7.1,22.08,2.71-12.14,2.71-18.59a25,25,0,0,0-1.94-9.94,6.84,6.84,0,0,1-.77-2.58A6.57,6.57,0,0,1,42,.65a7.1,7.1,0,0,1,3-.65,6.39,6.39,0,0,1,6.33,4.26,7.1,7.1,0,0,1,.65,3q0,0.26-2.19,6.84a21.65,21.65,0,0,0-.52,5.68q0,6.46,2.71,18.59,7-14.72,7-22.08l-0.77-5.42V10.72a6.57,6.57,0,0,1,4.39-6.58,7.1,7.1,0,0,1,3-.65,6.64,6.64,0,0,1,6.45,4.13,6.37,6.37,0,0,1,.77,3.1q0,3.61-2.32,5.16-3.61,2.32-3.61,11.36a90.58,90.58,0,0,0,.65,11q8.26-8.39,8.26-14.2L75,19.11a6.64,6.64,0,0,1,4.13-6.46,6.37,6.37,0,0,1,3.1-.77A6.73,6.73,0,0,1,88.82,16l0.77,2.45v0.65q0,5.16-5.94,7.88A123.14,123.14,0,0,1,79.27,48.8,7.05,7.05,0,0,0,79,50.35q0,0.9-1.94,3l-1.55,1.94q-6.2,7.1-6.2,9.81,0,0.77,3.1,8a23.45,23.45,0,0,1,.52,4.52m-28-73.85a2.94,2.94,0,0,0-3.1,2.45A2.43,2.43,0,0,0,41.7,7a2.94,2.94,0,0,0,2.45,3.1,2.44,2.44,0,0,0,.77.13Q48,10.2,48,7a3,3,0,0,0-2.19-3.1,2.86,2.86,0,0,0-.9-0.13M68.16,54.09Q68.16,50,44.93,50T21.56,54.22q0,1.81,3.36,1.81a90.5,90.5,0,0,0,9.68-.65L43,55.13h2.07q3.61,0,13.68.65L65.07,56q3.1,0,3.1-1.94" />
</svg>