<?xml version="1.0" encoding="utf-8"?>
<!-- Generator: Adobe Illustrator 19.2.1, SVG Export Plug-In . SVG Version: 6.00 Build 0)  -->
<svg version="1.1"
	 id="svg1" inkscape:version="0.40" sodipodi:docbase="/home/vector" sodipodi:docname="chess_set_symbols.svg" sodipodi:version="0.32" xmlns:cc="http://web.resource.org/cc/" xmlns:dc="http://purl.org/dc/elements/1.1/" xmlns:inkscape="http://www.inkscape.org/namespaces/inkscape" xmlns:rdf="http://www.w3.org/1999/02/22-rdf-syntax-ns#" xmlns:sodipodi="http://sodipodi.sourceforge.net/DTD/sodipodi-0.dtd"
	 xmlns="http://www.w3.org/2000/svg" xmlns:xlink="http://www.w3.org/1999/xlink" x="0px" y="0px" viewBox="0 0 841.9 300"
	 style="enable-background:new 0 0 841.9 300;" xml:space="preserve">
<sodipodi:namedview  bordercolor="#666666" borderopacity="1.0" id="base" inkscape:current-layer="layer1" inkscape:cx="420.94487" inkscape:cy="151.37844" inkscape:pageopacity="0.0" inkscape:pageshadow="2" inkscape:window-height="994" inkscape:window-width="1270" inkscape:window-x="0" inkscape:window-y="5" inkscape:zoom="1.3674339" pagecolor="#ffffff">
	</sodipodi:namedview>
<path id="text1061" d="M82.4,76.6c0,1.5-1.1,2.3-3.2,2.3c-2.4,0-3.6-0.8-3.6-2.3c0-7.1-2.4-13-7.1-17.4c-4.2-3.8-8.3-5.7-12.3-5.7
	c-5.9,0-9.5,2.3-11,7l-0.5,3.5v0.3c0,3.4,2.5,8.2,7.6,14.3c1.4,1.5,2.5,2.8,3.5,3.6c1.4,1.1,3.7,1.7,6.8,1.7c3.4,0,8.8-0.6,16.3-1.9
	c7.6,1.3,13,1.9,16.4,1.9c3.3,0,5.6-0.6,6.8-1.7c3.6-3.2,6.6-7.1,9-11.6c1.4-2.6,2.1-4.7,2.1-6.3c0-5.4-2.5-8.8-7.4-10.2
	c-1.3-0.3-2.7-0.5-4.1-0.5c-4,0-8,1.9-12.1,5.8C84.8,63.6,82.4,69.3,82.4,76.6 M110.4,64.2c0,3.4-2.4,7.5-7.1,12.1l-3.4,2.8
	l-1.3,0.8c-1.6,0.3-3.4,0.4-5.2,0.4c-5.3,0-8-1.1-8-3.2c0.2-6.6,2.2-11.8,5.9-15.5c3.3-3.3,6.6-4.9,10.1-4.9c4.4,0,7.2,1.6,8.4,4.8
	L110.4,64.2 M98.1,97c0-2.2-6.3-3.4-19-3.4c-3.4,0-6.5,0.1-9.2,0.4l-3.1,0.3c-4.6,0.6-7,1.5-7,2.6c0,1.3,1.2,1.9,3.5,1.9L79,97.5
	l15.5,1.3C96.9,98.8,98.1,98.2,98.1,97 M105.4,100.1c-0.2,5.9-9,8.8-26.3,8.8c-17.2,0-25.9-2.9-26.2-8.8c-0.1-5.5-0.9-10.4-2.5-14.7
	c-0.9-2.3-2.8-5.3-5.4-8.9c-3.4-4.6-5-8.6-5-12.1c0-5.5,2.4-9.8,7.1-12.8c2.7-1.7,5.6-2.6,8.9-2.6c4.5,0,8.7,1.6,12.8,4.9
	c0-4,0.4-6.7,1.2-8.1c0.6-1.6,2.6-3.6,5.9-5.9v-3l-5.3-3.2v-4.6h4.8l1.5-4.8h4.4l1.7,4.8h4.6v4.6l-5.2,3.2v3
	c3.3,2.4,5.3,4.5,6.1,6.2l0.9,3.7c0.1,1,0.2,2.4,0.3,4.1c4-3.3,8.2-4.9,12.5-4.9c5.8,0,10.2,2.2,13.4,6.6c1.8,2.6,2.7,5.5,2.7,8.8
	c0,3.5-1.7,7.6-5,12.3l-3,4.1C107.1,85.5,105.4,92,105.4,100.1 M47.7,64.2c0-3.6,1.8-5.9,5.4-7c1-0.3,2.1-0.5,3.2-0.5
	c3.6,0,7.1,1.6,10.3,4.9c3.7,3.8,5.6,9,5.8,15.5c0.1,1.9-1.9,3-5.9,3.2c-0.6,0-1.2,0-1.9,0c-1.7,0-3.5-0.1-5.3-0.4
	c-2.8-1.4-5.7-4.1-8.5-8.1C48.7,68.8,47.7,66.3,47.7,64.2"/>
<path id="path1742" d="M225.3,95.4c0,1.4,1,2.1,3,2.1l8.9-0.6c0,0,2.6-0.1,7.7-0.4h1.9l15.1,0.8l3.1,0.3c2,0,3-0.7,3-2.1
	c0-2.5-5.8-3.9-17.3-4.1h-4c-9.7,0-16.2,0.7-19.5,2.2C225.9,94,225.3,94.7,225.3,95.4 M209.1,41.5c-1.6,0-2.7,0.8-3.1,2.5
	c-0.1,0.3-0.1,0.5-0.1,0.8c0,1.6,0.8,2.7,2.5,3.1c0.3,0.1,0.5,0.1,0.8,0.1c2.1,0,3.1-1.1,3.1-3.2C212.2,42.5,211.2,41.5,209.1,41.5
	 M226,33.3c-2.2,0-3.4,1.1-3.4,3.2c0,2.2,1.1,3.2,3.4,3.2c2.1,0,3.1-1.1,3.1-3.2C229.1,34.4,228.1,33.3,226,33.3 M267.2,33.3
	c-1.5,0-2.5,0.7-3,2.2l-0.1,1c0,2.2,1,3.2,3.1,3.2c2.2,0,3.2-1.1,3.2-3.2C270.4,34.4,269.4,33.3,267.2,33.3 M284,41.5
	c-2.1,0-3.1,1.1-3.1,3.2c0,2.2,1,3.2,3.1,3.2c2.2,0,3.2-1.1,3.2-3.2c0-1.6-0.8-2.7-2.5-3.1C284.5,41.5,284.3,41.5,284,41.5
	 M274.7,103.2c0,2.4-4.4,4.1-13.3,5l-12.5,0.8h-2.3c-10.5,0-18.5-0.9-24-2.7c-2.7-0.8-4-1.8-4-3.1c0-2.5,0.7-5.3,2.1-8.5
	c0.9-1.9,1.4-3.2,1.4-4c0-1.6-2-4.8-5.9-9.6c-2.2-2.5-3.4-4.2-3.7-5.2c0-0.5-0.3-1.7-0.8-3.5l-1.7-6.5c-1.1-4.2-1.9-8.7-2.2-13.4
	c-4-1.6-5.9-4.3-5.9-7.9c0-3.1,1.4-5.3,4.3-6.6c0.9-0.4,2-0.6,3.1-0.6c2.8,0,4.9,1.3,6.3,3.9c0.6,1.1,0.9,2.2,0.9,3.4l-0.6,4.9
	c0,3.9,2.8,8.6,8.3,14.2c0.4-3.5,0.6-7.2,0.6-11.1c0-5.8-1-9.4-3.1-11c-0.2-0.2-0.3-0.3-0.5-0.4c-1.5-0.9-2.3-2.6-2.3-5
	c0-3.2,1.5-5.4,4.4-6.6c0.9-0.4,1.9-0.6,3-0.6c3,0,5.2,1.4,6.5,4.1c0.5,0.9,0.8,2,0.8,3.1l-0.9,5.6c0,4.8,2.4,12.2,7.1,22.1
	c1.8-8.1,2.7-14.3,2.7-18.6c0-3.6-0.6-6.9-1.9-9.9c-0.5-1.1-0.8-2-0.8-2.6c0-3.2,1.4-5.4,4.3-6.6c0.9-0.4,1.9-0.6,3-0.6
	c3,0,5.1,1.4,6.3,4.3c0.4,0.9,0.6,1.9,0.6,3c0,0.2-0.7,2.5-2.2,6.8c-0.3,1.1-0.5,3-0.5,5.7c0,4.3,0.9,10.5,2.7,18.6
	c4.6-9.8,7-17.2,7-22.1l-0.8-5.4v-0.1c0-3.2,1.5-5.4,4.4-6.6c0.9-0.4,1.9-0.6,3-0.6c3,0,5.2,1.4,6.5,4.1c0.5,0.9,0.8,2,0.8,3.1
	c0,2.4-0.8,4.1-2.3,5.2c-2.4,1.5-3.6,5.3-3.6,11.4c0,3.8,0.2,7.4,0.6,11c5.5-5.6,8.3-10.3,8.3-14.2l-0.6-4.9c0-3,1.4-5.2,4.1-6.5
	c0.9-0.5,2-0.8,3.1-0.8c3.1,0,5.3,1.4,6.6,4.1l0.8,2.5v0.6c0,3.4-2,6.1-5.9,7.9c-0.5,5.9-2,13.2-4.4,21.8c-0.2,0.7-0.3,1.2-0.3,1.5
	c0,0.6-0.6,1.6-1.9,3l-1.5,1.9c-4.1,4.7-6.2,8-6.2,9.8c0,0.5,1,3.2,3.1,8C274.5,100.4,274.7,101.9,274.7,103.2 M246.7,29.3
	c-1.6,0-2.7,0.8-3.1,2.5c-0.1,0.3-0.1,0.5-0.1,0.8c0,1.6,0.8,2.7,2.5,3.1c0.3,0.1,0.5,0.1,0.8,0.1c2.1,0,3.1-1.1,3.1-3.2
	c0-1.5-0.7-2.6-2.2-3.1C247.3,29.4,247,29.3,246.7,29.3 M269.9,79.7c0-2.8-7.7-4.1-23.2-4.1c-15.6,0-23.4,1.4-23.4,4.3
	c0,1.2,1.1,1.8,3.4,1.8c2.6,0,5.8-0.2,9.7-0.6l8.4-0.3h2.1c2.4,0,7,0.2,13.7,0.6l6.3,0.3C268.9,81.6,269.9,81,269.9,79.7"/>
<path id="path1734" d="M385.7,108.9l-2.5-2.5v-9.2l13-12.9V58.6l-10.1-9.9V37.2l3.6-3.6h9.2l2.3,2.2V39h4.9v-3.2l2.2-2.2h14.3
	l2.2,2.2V39h4.9v-3.2l2.2-2.2h9.3l3.6,3.6v11.5l-10.1,9.9v25.7l13,12.9v9.2l-2.6,2.5H385.7 M400.9,81.4v4.4h29.3v-4.4H400.9
	 M400.9,58.1v4.4h29.3v-4.4H400.9"/>
<path id="path1731" d="M576.2,79c-4.4,0-6.6,0.7-6.6,2.1c0,1.2,1.9,1.9,5.8,2.2h7.1c8.6,0,12.9-0.7,12.9-2.2c0-1.4-2.2-2.1-6.6-2.1
	H576.2 M576.2,71c-3.8,0-5.9,0.4-6.3,1.3c-0.2,0.2-0.3,0.4-0.3,0.8c0,0.9,0.9,1.5,2.7,1.7c2.2,0.3,5.6,0.4,10.2,0.4
	c4.6,0,8-0.1,10.3-0.4c1.7-0.2,2.6-0.7,2.6-1.7c0-1.4-2.2-2.1-6.6-2.1H576.2 M600.2,76.6l2.6,9.9c0,3-3.1,4.8-9.2,5.3
	c4.5,1.7,8.6,2.6,12.5,2.6c0.5,0,3.1-0.1,7.6-0.4c3.8,0,6.9,2,9.3,5.9c0.3,0.7,0.8,1.5,1.3,2.3l-4.6,7.1c-1.4,1.7-2.8,2.8-4.4,3.4
	c-0.3-1.8-3.1-2.9-8.3-3.4l-3.1-0.3c-10.6-0.9-17.7-3.1-21.4-6.8c-3.4,3.5-8.5,5.6-15.4,6.1c-1.5,0.2-3.6,0.4-6.1,0.8
	c-6.3,0.5-9.9,1.4-11,2.7c-0.2,0.3-0.3,0.6-0.4,0.9c-2.2-0.9-4.3-3.1-6.3-6.5c-0.8-1.4-1.7-2.7-2.7-4c2.3-4.3,4.8-6.9,7.5-7.7
	c0.9-0.3,2-0.5,3.1-0.5c0,0,2.5,0.1,7.6,0.4c4,0,8.1-0.9,12.5-2.6c-6.1-0.5-9.2-2.3-9.2-5.3c0-0.3,0.7-2.5,2.1-6.6
	c0.4-1.4,0.6-2.3,0.6-2.8c-5.2-6.4-7.9-12-7.9-16.9c0-5.7,2.8-10.8,8.4-15.5c5-4.2,8.6-6.5,10.8-6.7c-1.9-2.3-2.8-4.7-2.8-7.2
	c0-4,2-6.5,6.1-7.5c0.9-0.3,1.9-0.4,3-0.4c4.3,0,7.1,1.6,8.4,4.8l0.6,2.7v0.4c0,2.4-0.9,4.8-2.8,7.2c1.6,0.4,4.1,1.8,7.4,4
	C604,47.5,608,53.6,608,60.2C608,65.2,605.4,70.6,600.2,76.6 M584.9,64.6v-5.9h4.5v-4.9h-4.5v-5.6h-4.6v5.6h-4.5v4.9h4.5v5.9H584.9
	 M582.6,28.2c-1.7,0-2.8,0.8-3.2,2.3l-0.1,0.8c0,1.6,0.9,2.7,2.6,3.1c0.3,0.1,0.5,0.1,0.8,0.1c2.2,0,3.2-1.1,3.2-3.2
	C585.8,29.2,584.7,28.2,582.6,28.2"/>
<path id="path1726" d="M729.6,62.9c2.2,0,4.4-1.2,6.8-3.7c1.3-1.3,1.9-2.4,1.9-3.4c0-1.1-1-1.7-3.1-1.7c-2.4,0-4.4,1.1-6.1,3.2
	c-0.9,1-1.3,2.1-1.3,3.2C727.9,62.1,728.5,62.9,729.6,62.9 M727.4,34.6c0.2,0,0.6,0,1.3-0.1c3.9,0,8,1.3,12.4,3.9
	c0.5,0.3,0.8,0.5,0.8,0.5c2.5-4,4.4-6.1,5.7-6.1c2.8,1.5,4.6,3.2,5.4,5c0.4,0.9,1.1,2.7,1.9,5.4c0.7-0.2,1.4-0.3,2.1-0.3
	c7.2,0,14.1,4.4,20.7,13.3c7.8,10.2,11.7,24.2,11.7,41.8c0,4-0.2,7.5-0.5,10.7h-54.5c0.2-5.8,2.3-11.2,6.3-16.4
	c0.4-0.7,1-1.5,1.8-2.3c3.2-4,5.1-7.1,5.8-9.3c0.3-1.1,0.6-2.3,0.8-3.5c-5.7,2.2-9.9,5.6-12.8,9.9c-1.3,2.2-2.7,4.4-4.3,6.7
	c-0.4,0.7-1.1,1-1.9,1c-2.2,0-3.2-1.3-3.2-4c-0.9,1.1-1.9,1.7-3,1.7c0,0-0.9-0.2-2.6-0.6c-3.7-0.9-6.3-2.6-7.9-4.9
	c-0.5-0.8-1.1-1.8-1.7-3.1c0.6-3.7,3.6-11.1,8.9-22.1c3.9-7.9,6.3-13.6,7.2-17c0.1-0.8,0.1-1.9,0.1-3.4
	C728,40.4,727.8,38.1,727.4,34.6 M719.6,79.9c-2.1,0-3.4,0.9-4.1,2.7c-0.2,0.4-0.3,0.9-0.3,1.3c0,0.3,0.1,0.8,0.4,1.3
	c2.2,0,3.6-0.9,4.1-2.8c0.1-0.3,0.1-0.6,0.1-0.9C719.9,81.3,719.8,80.8,719.6,79.9 M783,99.8V95c0-14-3.6-25.5-10.7-34.5
	c-6.2-7.7-11.8-11.6-16.9-11.6c0,0-0.5-0.1-1.5-0.3c-0.2,0.1-0.3,0.2-0.4,0.3c-1.1,0-1.7,0.5-1.7,1.4c0,0.3,0.3,0.8,0.8,1.3
	c4.6,0.4,9.7,3.7,15.2,9.9c7,8.1,10.5,19.8,10.5,35.1c0,0,0,0.3,0,0.8c0,3.8,0.8,5.7,2.5,5.7C782.1,103.2,782.8,102.1,783,99.8"/>
<path id="path1722" d="M890.9,108.9c-0.1-1-0.1-3.1-0.1-6.1c0-10.8,3.4-18.9,10.1-24.1c2-1.6,4.4-3.1,7.2-4.5
	c-3.4-1-5.6-3.6-6.8-7.6c-0.3-1.3-0.5-2.6-0.5-4c0-5.8,3-9.9,8.9-12.3c-1.5-2.6-2.3-5-2.3-7.4c0-3.9,1.9-6.8,5.7-8.6
	c1.7-0.9,3.6-1.3,5.6-1.3c4.3,0,7.5,1.7,9.6,5c0.9,1.5,1.4,3.1,1.4,4.9c0,2.5-0.7,4.9-2.2,7.4c3.2,1.3,5.5,3,6.8,5.2
	c1.4,2.3,2.1,4.7,2.1,7.1c0,4.5-1.5,7.9-4.6,10.2c-0.8,0.7-1.6,1.2-2.6,1.4c7.9,4,13,9.3,15.4,15.9c1.2,3.6,1.8,7.9,1.8,12.8
	c0,3,0,5-0.1,6.1H890.9"/>
<path id="path1721" d="M80.5,251.7c-17.1,0-25.8-2.9-26.1-8.6c-0.4-7.9-1.8-13.9-4-17.9c-0.9-1.6-2.3-3.6-4-5.9
	c-2.9-3.9-4.6-7.1-4.9-9.8c-0.1-0.7-0.1-1.4-0.1-2.2c0-5.4,2.3-9.7,6.8-12.8c1.1-0.7,2.3-1.2,3.5-1.7c4.6-1.6,9.1-1.4,13.6,0.8
	c1.6,0.8,3.3,1.8,4.9,3.1l0.1,0.1c0-1.8,0.1-3.7,0.3-5.8c0-0.6,0.3-1.4,0.9-2.5c1.4-2.2,3-4,4.9-5.3c0.3-0.2,0.7-0.4,1-0.6v-3.1
	l-5.3-3.1v-4.6h4.8l1.7-4.9h3.9l1.7,4.9h4.8v4.6l-5.3,3.1v3.1c4.5,2.8,6.8,5.7,6.8,8.5c0.2,1.7,0.3,3.6,0.3,5.7l0.1-0.1
	c5.4-4.6,11.1-6,17-4.4c1.5,0.4,3,1.1,4.4,1.9c4.8,2.9,7.3,7.3,7.4,13c0,3.4-1.7,7.5-5.2,12.3c-2.8,4-4.6,6.8-5.3,8.6
	c-1.5,3.9-2.3,8.9-2.6,15C106.4,248.8,97.7,251.7,80.5,251.7 M80.5,208.2l3.7-5.9c0.6-1.3,1.1-2.5,1.4-3.6c0.2-0.6,0.3-1.9,0.3-3.7
	c0-5.1-1.8-7.6-5.3-7.6c-3.7,0-5.6,2.5-5.6,7.6c0,1.9,0.1,3.1,0.3,3.7c0.7,2.3,2.2,5.1,4.4,8.3C80.2,207.5,80.5,207.9,80.5,208.2
	 M115,207.9c0-3.9-1.3-6.8-3.9-8.9c-2.2-1.8-4.7-2.7-7.6-2.7c-3.7,0-7.7,1.9-12,5.7c-5.1,4.4-8,10.3-8.6,17.8c0,0.6,1.6,1.3,4.8,2.1
	c3.7,0.7,10,1,18.8,1l5.8-7.7C114.1,212.4,115,210,115,207.9 M80.5,225.3c-2.2,0.9-8.7,1.8-19.6,2.5c-1.6,0.1-3,0.2-4,0.3
	c0.9,3.3,1.4,6.9,1.7,10.8c5.9-1.9,13.3-2.8,21.9-2.8c8.9,0,16.2,0.9,21.9,2.8c0.3-4.3,0.8-7.9,1.7-10.8L85,226.5
	C83.4,226.3,81.9,225.9,80.5,225.3 M46,207.9c0,2.7,2.1,6.7,6.3,12.1c1,1.3,1.8,2.2,2.2,2.8h2.3c8.9,0,15.3-0.6,19.4-1.8
	c1.3-0.3,1.9-0.8,1.9-1.3c-0.7-7.5-3.6-13.4-8.6-17.8c-4.2-3.8-8.2-5.7-12-5.7c-1.2,0-2.5,0.3-3.9,0.8c-3.4,0.9-5.8,3.1-7,6.8
	l-0.6,3.5V207.9 M80.5,247c8.1,0,13.7-0.5,16.8-1.5c0.8-0.3,1.2-0.6,1.2-0.9c0-2.2-5.9-3.4-17.8-3.4c-4.6,0-9,0.3-13.3,0.9
	c-3.2,0.5-4.8,1.3-4.8,2.5c0,1.3,5.1,2.1,15.2,2.5C78.8,247,79.7,247,80.5,247"/>
<path id="path1715" d="M245.5,222.6h5.7c1.3,0,2.8,0,4.6,0.1l12.8,0.8h0.1c1.5,0,2.3-0.2,2.3-0.6v-0.5c0-2.6-5.7-4.3-17.2-5
	c-2.1-0.2-3.9-0.3-5.4-0.3c-8.4,0-14.9,0.9-19.5,2.6c-2.1,0.8-3.1,1.7-3.1,2.7v0.5c0,0.4,0.8,0.6,2.3,0.6L245.5,222.6 M269.3,228.4
	c-6.8-0.9-13.8-1.3-20.9-1.3c-7.5,0-14.5,0.4-20.9,1.3c1,0.9,1.5,2.5,1.5,5c0,1.6-0.3,2.6-0.8,3c5.2-0.9,11.9-1.4,20.1-1.4
	c8.3,0,15,0.5,20.1,1.4c-0.5-0.3-0.8-1.3-0.8-3C267.8,231,268.3,229.3,269.3,228.4 M248.4,239.5c-4.4,0-9.3,0.2-14.7,0.6
	c-4.2,0.3-6.3,1.3-6.3,3c0,2.2,7,3.2,21,3.2c14,0,21-1.1,21-3.2c0-0.7-0.6-1.3-1.7-1.9C264.5,240.1,258.1,239.5,248.4,239.5
	 M248.4,172c-2.2,0-3.2,1-3.2,3.1c0,2.2,1.1,3.4,3.2,3.4c2.1,0,3.1-1.1,3.1-3.4C251.5,173.1,250.5,172,248.4,172 M248.4,168.3
	c3.1,0,5.2,1.4,6.5,4.3l0.6,2.6v0.4c0,0.5-0.3,1.6-1,3.2c-1.2,3.5-1.8,6.6-1.8,9.2c0,4.2,0.9,10.5,2.8,18.7c4.6-9.8,7-17.2,7-22.2
	l-0.8-5.6c0-3,1.3-5.2,4-6.5c0.9-0.5,2-0.8,3.1-0.8c3.1,0,5.3,1.4,6.6,4.1c0.5,1,0.8,2.1,0.8,3.1c0,2.2-0.8,4-2.3,5.3
	c-2.3,2.3-3.5,6.1-3.6,11.4c0,2.2,0.2,5.9,0.6,10.8c5.6-5.8,8.4-10.5,8.4-14.1l-0.6-5c0-2.8,1.3-4.9,3.9-6.3c1-0.6,2.1-0.9,3.2-0.9
	c2.9,0,5.1,1.3,6.6,4l0.8,2.5v0.8c0,3.5-2,6.2-5.9,8c-0.2,3.7-1.6,11-4.3,21.8c-0.2,0.5-0.3,1-0.4,1.4c0,1.2-1.4,3.3-4.1,6.2
	c-3.7,3.7-5.6,6.6-5.6,8.6c0,0.9,1,3.5,3.1,7.6c0.3,0.8,0.5,1.9,0.5,3.5v0.9c-0.1,0.3-0.1,0.6-0.1,0.9v0.1l0.1,0.1
	c0,3.1-8.3,4.8-24.9,5.2c-1.1,0-2.2,0-3.2,0l-5.4-0.1h-0.1c-8.1-0.3-14.2-0.9-18.5-2.1c-2.7-0.8-4-1.8-4-3c0.1-0.1,0.1-0.6,0-1.5
	c-0.1-0.2-0.1-0.3,0-0.5c0-2,0.6-4.3,1.9-6.8c1-2.1,1.5-3.5,1.5-4.3c0-1.4-0.7-3-2.2-4.9l-6.3-7.2c-0.7-0.9-1-1.9-1-2.7
	c-2.7-10.9-4.2-18-4.5-21.3c-0.1-0.7-0.1-1.3-0.1-1.9c-4-1.8-5.9-4.5-5.9-8c0-2.8,1.3-4.9,3.9-6.3c1.1-0.6,2.2-0.9,3.4-0.9
	c3,0,5.2,1.4,6.5,4.1c0.5,0.9,0.8,2,0.8,3.1l-0.6,5c0,3.8,2.8,8.5,8.3,14.1c0.4-3.8,0.6-7.4,0.6-10.8c0-4.7-0.6-7.9-1.7-9.4
	c-0.4-0.6-1.1-1.3-1.9-2.1c-1.5-1-2.3-2.8-2.3-5.2c0-3,1.4-5.2,4.3-6.6c0.9-0.4,2-0.6,3.1-0.6c3,0,5.2,1.4,6.5,4.1
	c0.5,0.9,0.8,2,0.8,3.1l-0.8,5.4v0.1c0,4.9,2.3,12.3,7,22.2c1.8-7.8,2.7-14.1,2.7-18.7c0-3.4-0.6-6.7-1.9-9.8
	c-0.5-1.2-0.8-2.1-0.8-2.6c0-3,1.4-5.2,4.1-6.5C246.3,168.5,247.3,168.3,248.4,168.3 M285.7,184.2c-1.4,0-2.4,0.7-3,2.1
	c-0.1,0.3-0.1,0.7-0.1,1c0,1.7,0.8,2.8,2.3,3.2c0.3,0.1,0.5,0.1,0.8,0.1c2.2,0,3.2-1.1,3.2-3.4C289,185.2,287.9,184.2,285.7,184.2
	 M268.8,175.9c-1.5,0-2.5,0.7-3,2.2l-0.1,1c0,1.5,0.7,2.6,2.2,3.1c0.3,0.1,0.6,0.1,0.9,0.1c2.2,0,3.4-1.1,3.4-3.2
	C272.2,177,271.1,175.9,268.8,175.9 M227.8,175.9c-2.2,0-3.2,1.1-3.2,3.2c0,2.2,1.1,3.2,3.2,3.2c2.1,0,3.1-1.1,3.1-3.2
	C230.9,177,229.8,175.9,227.8,175.9 M210.9,184.2c-2.2,0-3.2,1-3.2,3.1c0,2.2,1.1,3.4,3.2,3.4c2.1,0,3.1-1.1,3.1-3.4
	c0-1.5-0.7-2.5-2.2-3C211.5,184.2,211.2,184.2,210.9,184.2 M248.4,192.4c-1.2,7.6-2.8,13-4.6,16.4l-1.9,3.1v0.1
	c-0.3-0.3-1.4-1.5-3.4-3.9c-2.5-2.9-5.1-8.5-7.9-16.7c0.2,1.2,0.3,2.5,0.3,3.7c0,4-0.7,10.3-2.2,18.7c-4.6-2.8-9.2-7.1-13.6-13.2
	c1.5,7.4,2.6,12.3,3.4,14.6c0.5,1.7,1.2,2.7,1.9,3c7.1-4,16.4-6.1,28-6.1c11.7,0,21,2,28,6.1c1.5-0.5,3.3-6.4,5.2-17.6
	c-4.5,6.2-9,10.6-13.4,13.2c-1.5-7.5-2.2-13.4-2.2-17.7c0-1.1,0.1-2.7,0.3-4.8c-1.7,5.2-3.7,9.8-5.9,13.8c-1.2,1.8-2.5,3.5-4,5.2
	c-0.7,0.7-1.1,1.2-1.3,1.5l-2.8-5c-0.1-0.3-0.2-0.7-0.4-1C251.1,204.1,250,199.6,248.4,192.4"/>
<path id="path1705" d="M401.3,201.6v22.9h29.4v-22.9H401.3 M386,251.7l-2.5-2.5v-8.9l13.2-13.3v-25.8l-11.4-9.9v-11.7l3.7-3.6h11.6
	l2.2,2.2v3.4h3.7v-3.4l2.2-2.2h14.2l2.2,2.2v3.4h3.6v-3.4l2.3-2.2h11.6l3.7,3.6v11.7l-11.4,9.9V227l13.2,13.3v8.9l-2.5,2.5H386
	 M388.1,241.5v5h55.8v-5H388.1 M400.7,228.7l-8.5,8.3h47.5l-8.5-8.3H400.7 M411.1,181.3v3.4l-1.9,1.8h-8.4l-1.9-1.8v-3.6h-7.2
	l-1.7,1.8v7.2l8.8,7.1h34.6l8.8-7.1v-7.2l-1.7-1.8h-7.2v3.6l-1.9,1.8h-8.4l-1.9-1.8v-3.4H411.1"/>
<path id="path1700" d="M583.9,216.7c-6,0-10.7-0.3-14.1-0.8c0.6,1.2,0.9,2.2,0.9,3.1c0,1.3-0.3,2.4-0.8,3.2
	c2.5-0.8,7.1-1.2,13.9-1.2c6.8,0,11.4,0.4,13.9,1.2c-0.5-0.9-0.8-1.9-0.8-3.2c0-1,0.3-2.1,0.8-3.1
	C593.8,216.4,589.1,216.7,583.9,216.7 M583.9,170c-1.8,0-3.1,0.8-3.7,2.5c-0.2,0.4-0.3,0.9-0.3,1.3c0,1.9,0.9,3.1,2.8,3.7
	c0.3,0.1,0.7,0.1,1.2,0.1c2,0,3.3-0.9,3.9-2.7c0.1-0.3,0.1-0.7,0.1-1.2c0-1.7-0.9-2.9-2.6-3.5C584.8,170,584.3,170,583.9,170
	 M583.9,224.8c-3.3,0-7.5,0.3-12.7,0.9c-1.5,0.2-2.3,1-2.6,2.5c0,1,2.4,1.7,7.1,1.9c-0.4-0.1-0.3-0.1,0.5-0.1c0.8,0,3.3,0,7.6,0
	c10.1,0,15.1-0.6,15.1-1.8c0-2-2.5-3.1-7.5-3.2h-3.7c-1.1,0-2.1,0-2.8-0.1H583.9 M583.8,213c9.6,0,15.5-0.9,17.7-2.7
	c1.5-1.1,2.5-4.1,3.2-8.9c-0.4-4.3-3.2-8.4-8.4-12.4c-4.8-3.8-9-5.9-12.7-6.3c-3.4,0.4-7.4,2.5-12.3,6.3c-5.1,4-7.8,8.1-8.3,12.4
	c0.6,4.5,1.5,7.3,2.8,8.5c0.3,0.3,0.7,0.6,1.2,0.9C569.3,212.2,574.8,213,583.8,213 M581.6,206.6v-5.7h-4.4v-5h4.4v-5.6h4.6v5.6h4.4
	v5h-4.4v5.7H581.6 M583.6,233c-0.8,0-3.1,1.5-6.8,4.5c-2.7,1.8-7,2.9-12.9,3.2c-4.3,0-7.7,0.2-10.3,0.6c-2.8,0.6-4.1,1.8-4.1,3.5
	c0.3,1.7,1.2,2.6,2.7,2.6l6.8-1c4.5,0,9.2-0.6,14.1-1.8c5.6-1.5,9.2-3.8,10.8-7c2.3,4.6,8.3,7.3,18.1,8.3c0,0,1.1,0.2,3.4,0.5
	c2.2,0,3.4,0,3.4,0l7,1c1.5,0,2.5-0.9,2.7-2.6c0-1.7-1.4-2.9-4.1-3.5l-13.8-1c-4.4-0.3-8.6-2.1-12.7-5.2
	C586,233.7,584.6,233,583.6,233 M583.9,244.2c-3.4,3.4-8.4,5.4-15.2,6.2c-2.8,0.3-7.6,0.9-14.5,1.8c-1.8,0.3-2.8,1.2-3.1,2.5
	c-1.6-0.4-4-3.1-7.2-8c-0.8-1.2-1.3-2-1.7-2.5c2.8-5.4,6.4-8.1,10.6-8.1l7.6,0.4c3.5,0,7.7-0.8,12.4-2.5c-6.1-0.8-9.2-2.6-9.2-5.6
	l2.6-9.8c0-0.1,0-0.2,0-0.3c-5.2-5.7-7.7-11-7.7-16c0-5.7,2.8-10.8,8.4-15.5c4.9-4.1,8.5-6.3,10.8-6.6c-1.9-2.3-2.8-4.7-2.8-7.2
	c0-4,2-6.5,5.9-7.5c0.9-0.3,2-0.4,3.1-0.4c4.2,0,7,1.6,8.3,4.8l0.6,2.7v0.4c0,2.7-0.9,5.1-2.7,7.2c2.3,0.3,6,2.5,11,6.7
	c5.5,4.6,8.3,9.7,8.3,15.4c0,4.8-2.6,10.2-7.7,16c0,1.2,0.4,2.9,1.3,5.2c0.9,2.8,1.3,4.4,1.3,4.9c0,2.9-3.1,4.8-9.2,5.6
	c4.6,1.6,8.8,2.5,12.4,2.5l7.6-0.4c4.2,0,7.7,2.7,10.6,8.1l-4.4,6.7c-1.5,1.9-3,3.1-4.5,3.7c-0.3-1.7-2.8-2.8-7.5-3.2
	c0.6,0-0.7-0.1-3.9-0.4C594.6,250,587.4,247.7,583.9,244.2"/>
<path id="path1693" d="M721.5,221.2c1.2,0,1.8,0.8,1.8,2.5c0,2.2-1.1,3.2-3.2,3.2c-0.9,0-1.3-0.7-1.3-2.1
	C718.8,222.4,719.7,221.2,721.5,221.2 M730.8,205.5c-1.2,0-1.8-0.7-1.8-2.2c0-2.3,1.4-4.2,4.1-5.7c1.2-0.6,2.3-0.9,3.4-0.9
	c1.8,0,2.8,0.6,3,1.8c0,2-1.5,3.9-4.6,5.7C733.2,205,731.9,205.5,730.8,205.5 M731.8,181.2c0.3,1.2,0.5,2,0.5,2.5
	c0,0.3-0.1,0.9-0.4,2.1c1.4,0,3.3-0.7,5.7-2.1C735.3,182.4,733.4,181.6,731.8,181.2 M716.5,225.6c0.5,2.1,1.9,3.6,4.1,4.5
	c0.9,0.3,1.7,0.5,2.5,0.5h0.3c0.2,0,1.1-0.5,2.8-1.5c0.5-0.3,0.9-0.5,1.3-0.5h0.5c0.4,0,0.6,0.3,0.6,0.8l-0.8,2.5
	c0,0.8,0.6,1.2,1.8,1.2c0.2,0,1.2-1.5,3.2-4.5c3.8-5.9,9.2-10.3,16.1-13.3c0.7-4.6,2.4-8.7,5.2-12.3c0.7-0.9,1.4-1.4,2.1-1.4
	c0.8,0,1.2,0.6,1.2,1.7c0,0.3-0.8,2.7-2.3,7.4c-0.6,2-0.9,3.4-0.9,4.4c0,0.3,0.1,0.8,0.3,1.7c0,6.1-2.6,12.5-7.7,19.2
	c-3.4,4.6-5.3,8.3-5.7,11.1h42.6c0.3-4,0.5-6.9,0.5-8.8c0-17.7-5.6-31.9-16.7-42.5c-3.4-3.1-6.1-4.6-8.1-4.6h-7.7
	c-0.7-0.3-1.4-2.1-2.1-5.2c-0.5-2.5-1.2-4-1.9-4.6c-1,3.1-4.2,5.5-9.6,7.2c-2.8,0.9-4.8,1.7-5.9,2.6c-0.9,3-3.7,9.1-8.4,18.3
	C719.1,218.5,716.7,223.9,716.5,225.6 M788.8,251.7h-54.1c0.3-5.9,2.6-11.6,6.7-17c3.2-4.3,5.1-6.9,5.7-7.9c1.2-1.9,1.9-4.2,2.2-6.8
	c-5.6,2.4-9.9,5.9-13,10.3l-1.8,3c-1.3,2.1-2.1,3.2-2.5,3.5c-0.5,0.4-1.1,0.6-1.7,0.6c-2.7,0-4.5-0.9-5.4-2.7
	c-0.2-0.3-0.3-0.6-0.3-0.9c-0.9,0.4-1.7,0.6-2.6,0.6c-4.1,0-7.4-2.6-9.8-7.7c0.7-3.8,4.3-12.5,10.8-26.2c0.7-1.3,1.2-2.3,1.5-3.1
	c2.6-5.8,3.9-10.1,3.9-13c0-0.4-0.3-2.8-0.8-7.2h1c4.6,0,9.1,1.5,13.3,4.4c2.3-4,4.3-6.1,5.8-6.1c2.8,1.5,4.6,3.5,5.7,6.2l1.4,4.3
	c0.9-0.2,1.6-0.3,2.2-0.3c6.9,0,13.7,4.4,20.4,13.2c7.8,10.2,11.7,24.3,11.7,42.1C789.3,244.9,789.1,248.5,788.8,251.7"/>
<path id="path1688" d="M943,246.5c0-9-2.5-15.8-7.4-20.3c-1.6-1.5-3.7-3-6.1-4.4c-3.4-2-5-3.8-5-5.4c0-0.9,0.9-1.8,2.6-2.8
	c2.7-1.5,4.3-3.2,4.8-5.2c0.2-0.8,0.3-1.7,0.3-2.8c0-4-2-7.1-6.1-9.3l-2.3-1.7c-0.4-0.4-0.6-0.9-0.6-1.4c0-1.5,0.5-2.9,1.5-4.4
	c0.7-0.9,1-2.1,1-3.4c0-2.2-1.2-3.9-3.6-4.9c-0.8-0.3-1.5-0.4-2.3-0.4c-2.4,0-4.1,1.1-5.2,3.2c-0.3,0.7-0.5,1.4-0.5,2.1
	c0,0.8,0.6,2.2,1.7,4.4c0.7,1.2,1,2.3,0.9,3.4c0,1-1,2.1-3,3.1c-4,2.3-5.9,5.4-5.9,9.3c0,3.4,1.7,6,5,8c1.6,1.1,2.5,2.1,2.5,2.8
	c0,1.6-1.7,3.4-5,5.4c-6.2,3.8-10.2,8.4-11.9,13.8c-0.9,3-1.4,6.6-1.4,10.8H943 M892.4,251.7c-0.1-1-0.1-3-0.1-5.9
	c0-10.6,3.1-18.5,9.3-23.8c2.1-1.7,4.7-3.4,7.9-5c-3.3-1-5.5-3.5-6.6-7.5c-0.4-1.3-0.6-2.6-0.6-4c0-5.8,2.9-9.9,8.8-12.4
	c-1.4-2.5-2.1-4.9-2.1-7.4c0-4,1.9-6.9,5.8-8.8c1.6-0.8,3.4-1.2,5.3-1.2c4.4,0,7.6,1.7,9.7,5c0.9,1.5,1.4,3.1,1.4,4.9
	c0,2.3-0.8,4.8-2.3,7.4c5.9,2.4,8.9,6.5,8.9,12.4c0,4.6-1.7,8-5,10.3c-0.7,0.5-1.5,0.9-2.3,1.2c7.7,4,12.8,9,15.1,15.1
	c1.5,3.8,2.2,8.3,2.2,13.7c0,2.8,0,4.8-0.1,5.9H892.4"/>
</svg>
