<svg xmlns="http://www.w3.org/2000/svg" viewBox="0 0 89.47 83.4">
  <title>white-queen</title>
  <path style="fill:#010101" d="M41.83,54.35h5.68q1.94,0,4.65.13l12.78,0.77h0.13q2.32,0,2.32-.65V54.09q0-3.87-17.17-5-3.1-.26-5.42-0.26-12.65,0-19.49,2.58-3.1,1.16-3.1,2.71v0.52q0,0.65,2.32.65l17.3-.9m23.88,5.81A166.42,166.42,0,0,0,44.8,58.87a158.6,158.6,0,0,0-20.91,1.29q1.55,1.29,1.55,5,0,2.45-.77,3A115.64,115.64,0,0,1,44.8,66.74a115.65,115.65,0,0,1,20.14,1.42q-0.77-.52-0.77-3,0-3.74,1.55-5M44.8,71.26q-6.58,0-14.72.65-6.33.52-6.33,3,0,3.23,21,3.23t21-3.23q0-1-1.68-1.94-4.91-1.68-19.36-1.68m0-67.52q-3.23,0-3.23,3.1,0,3.36,3.23,3.36t3.1-3.36q0-3.1-3.1-3.1M44.8,0a6.48,6.48,0,0,1,6.45,4.26L51.9,6.84V7.23a11.27,11.27,0,0,1-1,3.23,29.05,29.05,0,0,0-1.81,9.17q0,6.33,2.84,18.72,7-14.72,7-22.21l-0.77-5.55a6.65,6.65,0,0,1,4-6.46,6.37,6.37,0,0,1,3.1-.77,6.73,6.73,0,0,1,6.58,4.13,6.88,6.88,0,0,1,.77,3.1,6.52,6.52,0,0,1-2.32,5.29q-3.49,3.49-3.61,11.36,0,3.36.65,10.84Q75.65,29.43,75.65,24L75,19a6.74,6.74,0,0,1,3.87-6.33,6.32,6.32,0,0,1,3.23-.9,7.08,7.08,0,0,1,6.58,4l0.77,2.45V19q0,5.29-5.94,8-0.26,5.55-4.26,21.82a11.89,11.89,0,0,0-.39,1.42q0,1.81-4.13,6.2Q69.2,62,69.2,65.07q0,1.42,3.1,7.62a9,9,0,0,1,.52,3.49v0.9a2.85,2.85,0,0,0-.13.9v0.13l0.13,0.13q0,4.65-24.92,5.16H44.67l-5.42-.13H39.12Q27,82.88,20.66,81.2q-4-1.16-4-3a3.89,3.89,0,0,0,0-1.55,0.55,0.55,0,0,1,0-.52,15.69,15.69,0,0,1,1.94-6.84,12.18,12.18,0,0,0,1.55-4.26q0-2.07-2.19-4.91l-6.33-7.23a4.66,4.66,0,0,1-1-2.71q-4-16.4-4.52-21.3A15.66,15.66,0,0,1,5.94,27Q0,24.27,0,19a6.74,6.74,0,0,1,3.87-6.33,7,7,0,0,1,3.36-.9,6.64,6.64,0,0,1,6.46,4.13,6.37,6.37,0,0,1,.77,3.1l-0.65,5q0,5.68,8.26,14.07a96.17,96.17,0,0,0,.65-10.84q0-7.1-1.68-9.42a13.49,13.49,0,0,0-1.94-2.07q-2.32-1.55-2.32-5.16A6.88,6.88,0,0,1,21,4a7.4,7.4,0,0,1,3.1-.65A6.64,6.64,0,0,1,30.6,7.49a6.37,6.37,0,0,1,.77,3.1L30.6,16v0.13q0,7.36,7,22.21,2.71-11.75,2.71-18.72a25.26,25.26,0,0,0-1.94-9.81,7.81,7.81,0,0,1-.77-2.58A6.64,6.64,0,0,1,41.7.77,6.37,6.37,0,0,1,44.8,0M82.11,15.88a3.07,3.07,0,0,0-3,2.07A4.23,4.23,0,0,0,79,19a3,3,0,0,0,2.32,3.23,2.44,2.44,0,0,0,.77.13q3.23,0,3.23-3.36,0-3.1-3.23-3.1M65.2,7.62a2.94,2.94,0,0,0-3,2.19l-0.13,1a3,3,0,0,0,2.19,3.1,2.86,2.86,0,0,0,.9.13q3.36,0,3.36-3.23T65.2,7.62m-41.05,0q-3.23,0-3.23,3.23t3.23,3.23q3.1,0,3.1-3.23t-3.1-3.23M7.23,15.88Q4,15.88,4,19q0,3.36,3.23,3.36T10.33,19a2.94,2.94,0,0,0-2.19-3,2.86,2.86,0,0,0-.9-0.13M44.8,24.14Q43,35.5,40.15,40.54l-1.94,3.1v0.13q-0.39-.39-3.36-3.87Q31.11,35.5,27,23.24A26.46,26.46,0,0,1,27.24,27Q27.24,33,25,45.7q-7-4.13-13.56-13.17a149.41,149.41,0,0,0,3.36,14.59q0.77,2.58,1.94,3Q27.37,44,44.8,44t28,6.07q2.32-.77,5.16-17.56-6.71,9.3-13.43,13.17A98.11,98.11,0,0,1,62.36,28q0-1.68.26-4.78a82.3,82.3,0,0,1-5.94,13.81,46,46,0,0,1-4,5.16,7.34,7.34,0,0,0-1.29,1.55l-2.84-5a5.06,5.06,0,0,0-.39-1q-1-2.84-3.36-13.56" />
</svg>