<svg xmlns="http://www.w3.org/2000/svg" viewBox="0 0 78.23 84.95">
  <title>white-king</title>
  <path style="fill:#010101" d="M39.12,84.95Q13.43,84.95,13,76.3,12.39,64.42,9,58.35a65.69,65.69,0,0,0-4-5.94Q0.65,46.61.13,42.6A17.71,17.71,0,0,1,0,40.41,14.65,14.65,0,0,1,6.84,27.63a18.53,18.53,0,0,1,3.49-1.68,16.94,16.94,0,0,1,13.56.77,25.75,25.75,0,0,1,4.91,3.1L28.92,30q0-2.71.26-5.81a5.38,5.38,0,0,1,.9-2.45A17.15,17.15,0,0,1,35,16.4a6.79,6.79,0,0,0,1-.65v-3.1l-5.29-3.1V4.91H35.5L37.18,0h3.87l1.68,4.91h4.78V9.55l-5.29,3.1v3.1q6.71,4.26,6.84,8.52,0.26,2.58.26,5.68l0.13-.13q8.13-6.84,17-4.39a16.65,16.65,0,0,1,4.39,1.94,14.57,14.57,0,0,1,7.36,13q0,5.16-5.16,12.26-4.26,5.94-5.29,8.65a48.93,48.93,0,0,0-2.58,15q-0.26,8.65-26.08,8.65m0-43.51,3.74-5.94a28.31,28.31,0,0,0,1.42-3.61,16.9,16.9,0,0,0,.26-3.74q0-7.62-5.29-7.62-5.55,0-5.55,7.62A16.9,16.9,0,0,0,34,31.89a30,30,0,0,0,4.39,8.26,2.68,2.68,0,0,1,.77,1.29m34.47-.26q0-5.81-3.87-8.91a11.47,11.47,0,0,0-7.62-2.71q-5.55,0-12,5.68-7.62,6.58-8.65,17.82,0,0.9,4.78,2.07,5.55,1,18.85,1l5.81-7.75q2.71-4.13,2.71-7.23M39.12,58.61Q35.89,60,19.49,61.06q-2.45.13-4,.26a57.32,57.32,0,0,1,1.68,10.84q8.91-2.84,21.95-2.84,13.3,0,21.95,2.84a49.58,49.58,0,0,1,1.68-10.84L43.64,59.77a23.12,23.12,0,0,1-4.52-1.16M4.65,41.18q0,4,6.33,12.14,1.55,1.94,2.19,2.84h2.32q13.3,0,19.36-1.81,1.94-.52,1.94-1.29-1-11.23-8.65-17.82-6.33-5.68-12-5.68a11.06,11.06,0,0,0-3.87.77q-5.16,1.29-7,6.84L4.65,40.67v0.52M39.12,80.3q12.14,0,16.78-1.55,1.16-.39,1.16-0.9,0-3.36-17.82-3.36a95.82,95.82,0,0,0-13.3.9q-4.78.77-4.78,2.45,0,1.94,15.23,2.45h2.71" />
</svg>