<svg xmlns="http://www.w3.org/2000/svg" viewBox="0 0 55.38 75.91">
  <title>black-pawn</title>
  <path style="fill:#010101" d="M0.13,75.91Q0,74.36,0,69.84,0,53.58,10.07,45.7a35.91,35.91,0,0,1,7.23-4.52q-5-1.55-6.84-7.62a15.47,15.47,0,0,1-.52-4q0-8.65,8.91-12.26a14.38,14.38,0,0,1-2.32-7.36q0-5.81,5.68-8.65A12.24,12.24,0,0,1,27.76,0q6.45,0,9.55,5a8.84,8.84,0,0,1,1.42,4.91,14,14,0,0,1-2.19,7.36,14,14,0,0,1,6.84,5.16,13.78,13.78,0,0,1,2.07,7.1q0,6.71-4.65,10.2a6.38,6.38,0,0,1-2.58,1.42q11.88,6.07,15.36,15.88a40.52,40.52,0,0,1,1.81,12.78q0,4.52-.13,6.07H0.13" />
</svg>