<svg xmlns="http://www.w3.org/2000/svg" viewBox="0 0 77.59 76.04">
  <title>black-hourse</title>
  <path style="fill:#010101" d="M17.82,30.08q3.23,0,6.84-3.74Q26.59,24.4,26.59,23q0-1.68-3.1-1.68a7.37,7.37,0,0,0-6.07,3.23,5,5,0,0,0-1.29,3.23q0,2.32,1.68,2.32M15.62,1.81q0.26,0,1.29-.13,5.81,0,12.39,3.87l0.77,0.52Q33.82,0,35.76,0q4.13,2.32,5.42,5a44.76,44.76,0,0,1,1.94,5.42,8.49,8.49,0,0,1,2.07-.26Q56,10.2,65.84,23.5,77.59,38.86,77.59,65.32A100.44,100.44,0,0,1,77.07,76H22.59a27.56,27.56,0,0,1,6.33-16.4,17.29,17.29,0,0,1,1.81-2.32q4.78-6.07,5.81-9.3a22.8,22.8,0,0,0,.77-3.49,26,26,0,0,0-12.78,9.94q-1.94,3.23-4.26,6.71a2.13,2.13,0,0,1-1.94,1q-3.23,0-3.23-4a3.71,3.71,0,0,1-3,1.68l-2.58-.65Q4,57.84,1.68,54.35A24.07,24.07,0,0,1,0,51.25Q0.9,45.7,8.91,29.18q5.81-11.88,7.23-17a32.69,32.69,0,0,0,.13-3.36,69.24,69.24,0,0,0-.65-7M7.88,47.12a4,4,0,0,0-4.13,2.71,3.45,3.45,0,0,0-.26,1.29,3,3,0,0,0,.39,1.29q3.36,0,4.13-2.84a2.86,2.86,0,0,0,.13-0.9,12.88,12.88,0,0,0-.26-1.55M71.26,67V62.23q0-21-10.72-34.47-9.3-11.62-16.91-11.62l-1.55-.26a1.5,1.5,0,0,0-.39.26Q40,16.14,40,17.56a2.11,2.11,0,0,0,.77,1.29q7,0.65,15.23,9.94Q66.49,40.92,66.49,63.9v0.77q0,5.68,2.45,5.68,2.07,0,2.32-3.36" />
</svg>