<svg xmlns="http://www.w3.org/2000/svg" viewBox="0 0 55.38 75.91">
  <title>white-pawn</title>
  <path style="fill:#010101" d="M50.74,70.75q0-13.56-7.36-20.27a31.53,31.53,0,0,0-6.07-4.39q-5-3-5-5.42,0-1.29,2.58-2.84,4-2.19,4.78-5.16a13.33,13.33,0,0,0,.26-2.84q0-5.94-6.07-9.3L31.5,18.85a2,2,0,0,1-.65-1.42A7.57,7.57,0,0,1,32.4,13a5.55,5.55,0,0,0,1-3.36q0-3.36-3.61-4.91a7.31,7.31,0,0,0-2.32-.39,5.32,5.32,0,0,0-5.16,3.23,4.58,4.58,0,0,0-.52,2.07,12.46,12.46,0,0,0,1.68,4.39,5.83,5.83,0,0,1,.9,3.36q0,1.55-3,3.1-5.94,3.49-5.94,9.3,0,5,5,8Q23,39.5,23,40.67q0,2.45-5,5.42Q8.65,51.77,6.07,59.9A36.42,36.42,0,0,0,4.65,70.75H50.74M0.13,75.91Q0,74.36,0,70,0,54.09,9.3,46.22a43,43,0,0,1,7.88-5q-4.91-1.55-6.58-7.49a12.57,12.57,0,0,1-.65-4q0-8.65,8.78-12.39a15.16,15.16,0,0,1-2.07-7.36q0-5.94,5.81-8.78A12.21,12.21,0,0,1,27.76,0q6.58,0,9.68,5a8.84,8.84,0,0,1,1.42,4.91,14.38,14.38,0,0,1-2.32,7.36q8.91,3.61,8.91,12.39,0,6.84-5,10.33a7.37,7.37,0,0,1-2.32,1.16q11.62,5.94,15.1,15.1A38,38,0,0,1,55.38,70q0,4.26-.13,5.94H0.13" />
</svg>