<svg xmlns="http://www.w3.org/2000/svg" viewBox="0 0 77.07 76.3">
  <title>white-hourse</title>
  <path style="fill:#010101" d="M9.3,45.83q1.81,0,1.81,2.45,0,3.23-3.23,3.23-1.29,0-1.29-2.07,0-3.61,2.71-3.61m9.3-15.75q-1.81,0-1.81-2.19,0-3.49,4.13-5.68a7.57,7.57,0,0,1,3.36-.9q2.71,0,3,1.81,0,3-4.65,5.68a8.59,8.59,0,0,1-4,1.29m1-24.27a11.12,11.12,0,0,1,.52,2.45,13.91,13.91,0,0,1-.39,2.07q2.07,0,5.68-2.07a31.76,31.76,0,0,0-5.81-2.45M4.26,50.22a6.54,6.54,0,0,0,4.13,4.52,6.61,6.61,0,0,0,2.45.52H11.1a17.3,17.3,0,0,0,2.84-1.55,2.51,2.51,0,0,1,1.29-.52h0.52a0.63,0.63,0,0,1,.65.77l-0.77,2.45q0,1.16,1.81,1.16,0.26,0,3.23-4.52a35.33,35.33,0,0,1,16.14-13.3A25.68,25.68,0,0,1,42,27.5,2.77,2.77,0,0,1,44,26.08q1.16,0,1.16,1.68,0,0.39-2.32,7.36A17,17,0,0,0,42,39.5a11.33,11.33,0,0,0,.26,1.68q0,9.17-7.75,19.24-5.16,7-5.68,11.1h42.6q0.52-5.94.52-8.78,0-26.59-16.65-42.47-5-4.65-8.13-4.65H39.38q-1-.52-2.07-5.16-0.77-3.74-1.94-4.65Q33.82,10.46,25.82,13a19.82,19.82,0,0,0-5.94,2.58Q18.46,20.14,11.49,34T4.26,50.22M76.56,76.3H22.46a30.78,30.78,0,0,1,6.71-17Q34,52.8,34.86,51.38a15.3,15.3,0,0,0,2.19-6.84A29.67,29.67,0,0,0,24,54.87l-1.81,3a20,20,0,0,1-2.45,3.49,2.57,2.57,0,0,1-1.68.65q-4,0-5.42-2.71a1.59,1.59,0,0,1-.26-0.9A5.73,5.73,0,0,1,9.81,59Q3.61,59,0,51.25,1,45.57,10.84,25q1-1.94,1.55-3.1,3.87-8.65,3.87-13,0-.65-0.77-7.23h1a23,23,0,0,1,13.3,4.39Q33.31,0,35.63,0a11.69,11.69,0,0,1,5.68,6.2l1.42,4.26a11.49,11.49,0,0,1,2.19-.26q10.33,0,20.4,13.17Q77.07,38.73,77.07,65.45a101.83,101.83,0,0,1-.52,10.84" />
</svg>