<svg xmlns="http://www.w3.org/2000/svg" viewBox="0 0 83.4 89.47">
  <title>white-bishop</title>
  <path style="fill:#010101" d="M305.9,403.7a98.13,98.13,0,0,1-14.07-.77,7.2,7.2,0,0,1,.9,3.1,6.18,6.18,0,0,1-.77,3.23q3.74-1.16,13.94-1.16t13.94,1.16a6.18,6.18,0,0,1-.77-3.23,6.87,6.87,0,0,1,.77-3.1,111.27,111.27,0,0,1-13.94.77m0-46.73a3.74,3.74,0,0,0-3.74,2.45,3.45,3.45,0,0,0-.26,1.29,3.64,3.64,0,0,0,2.84,3.74,4.8,4.8,0,0,0,1.16.13,3.71,3.71,0,0,0,3.87-2.71,4.81,4.81,0,0,0,.13-1.16,3.44,3.44,0,0,0-2.58-3.49,4.52,4.52,0,0,0-1.42-.26m0,54.87a113.66,113.66,0,0,0-12.65.9,2.73,2.73,0,0,0-2.58,2.45q0,1.55,7.1,1.94-0.65-.13.52-0.13h7.62q15.1,0,15.1-1.81,0-3-7.49-3.23h-3.74a26.32,26.32,0,0,1-2.84-.13h-1M305.77,400q14.46,0,17.69-2.71,2.19-1.68,3.23-8.91-0.65-6.45-8.39-12.39-7.23-5.68-12.65-6.33-5,.65-12.26,6.33-7.62,5.94-8.26,12.39Q286,395,288,396.85a6,6,0,0,0,1.16.9q3.23,2.19,16.65,2.19m-2.19-6.33v-5.68h-4.39v-5h4.39v-5.55h4.65v5.55h4.39v5h-4.39v5.68h-4.65M305.64,420q-1.16,0-6.84,4.52-4,2.71-12.91,3.23a65.59,65.59,0,0,0-10.33.65q-4.13.9-4.13,3.49,0.39,2.58,2.71,2.58l6.84-1a59,59,0,0,0,14.07-1.81q8.39-2.19,10.84-7,3.49,6.84,18.07,8.26l3.36,0.52h3.36l7,1q2.32,0,2.71-2.58,0-2.58-4.13-3.49l-13.81-1a23.69,23.69,0,0,1-12.65-5.16q-2.71-2.19-4.13-2.19m0.26,11.23q-5,5-15.23,6.2-4.13.39-14.46,1.81-2.71.52-3.1,2.45-2.45-.65-7.23-8-1.16-1.81-1.68-2.45,4.26-8.13,10.59-8.13l7.62,0.39A38.78,38.78,0,0,0,294.8,421q-9.17-1.16-9.17-5.55l2.58-9.81v-0.26q-7.75-8.52-7.75-16,0-8.52,8.39-15.49,7.36-6.2,10.84-6.58a11.33,11.33,0,0,1-2.84-7.23q0-5.94,5.94-7.49a11.76,11.76,0,0,1,3.1-.39q6.33,0,8.26,4.78l0.65,2.71v0.39a11,11,0,0,1-2.71,7.23q3.49,0.39,11,6.71,8.26,6.84,8.26,15.36,0,7.23-7.75,16a15.8,15.8,0,0,0,1.29,5.16,28.67,28.67,0,0,1,1.29,4.91q0,4.39-9.17,5.55a37.94,37.94,0,0,0,12.39,2.45l7.62-.39q6.33,0,10.59,8.13l-4.39,6.71a11,11,0,0,1-4.52,3.74q-0.52-2.58-7.49-3.23,0.9,0-3.87-.39-16.14-1.55-21.43-6.84" transform="translate(-264.2 -352.19)" />
</svg>