<svg xmlns="http://www.w3.org/2000/svg" viewBox="0 0 64.81 75.78">
  <title>white-rook</title>
  <path style="fill:#010101" d="M17.69,25.69V48.54H47.12V25.69H17.69M2.45,75.78L0,73.33V64.42l13.17-13.3V25.3L1.81,15.36V3.61L5.55,0H17.17l2.19,2.19V5.55h3.74V2.19L25.3,0H39.5L41.7,2.19V5.55h3.61V2.19L47.64,0H59.26L63,3.61V15.36L51.64,25.3V51.12l13.17,13.3v8.91l-2.45,2.45H2.45m2.07-10.2v5H60.29v-5H4.52M17.17,52.8L8.65,61.06H56.16L47.64,52.8H17.17M27.5,5.42V8.78l-1.94,1.81H17.17L15.23,8.78V5.16H8L6.33,7V14.2l8.78,7.1H49.7l8.78-7.1V7L56.8,5.16H49.57V8.78l-1.94,1.81H39.25L37.31,8.78V5.42H27.5" />
</svg>